# xmcd
#
# Track frame offsets: 
#        150
#        59198
#        73452
#        97752
#        120705
#        142628
#        165670
#        197934
#        215130
#        235950
#        260436
#        288482
#        291988
#
# Disc length: 4419 seconds
#
# Revision: 0
# Processed by: cddbd v1.5.1PL0 Copyright (c) Steve Scherf et al.
# Submitted via: ExactAudioCopy v0.95a3
#
DISCID=d711410d
DTITLE=Tolo Marton - Dal Vero [CD2)
DYEAR=2002
DGENRE=Blues
TTITLE0=Alpine Valley
TTITLE1=What's Going On
TTITLE2=Moon Tears
TTITLE3=Lust A Little Love
TTITLE4=Paligap
TTITLE5=All Along The Watchtower
TTITLE6=For Your Love
TTITLE7=Questions
TTITLE8=Laundromat
TTITLE9=Hey Joe
TTITLE10=It's Getting Late
TTITLE11=Looney Tunes
TTITLE12=Country Medley
EXTD=
EXTT0=
EXTT1=
EXTT2=
EXTT3=
EXTT4=
EXTT5=
EXTT6=
EXTT7=
EXTT8=
EXTT9=
EXTT10=
EXTT11=
EXTT12=
PLAYORDER=
